<?xml version="1.0" encoding="UTF-8" standalone="no"?>
<!-- Created with Inkscape (http://www.inkscape.org/) -->

<svg
   width="30.894428mm"
   height="31.48428mm"
   viewBox="0 0 30.894428 31.484276"
   version="1.1"
   id="svg1"
   xml:space="preserve"
   sodipodi:docname="ship.svg"
   inkscape:version="1.3 (0e150ed6c4, 2023-07-21)"
   xmlns:inkscape="http://www.inkscape.org/namespaces/inkscape"
   xmlns:sodipodi="http://sodipodi.sourceforge.net/DTD/sodipodi-0.dtd"
   xmlns="http://www.w3.org/2000/svg"
   xmlns:svg="http://www.w3.org/2000/svg"><sodipodi:namedview
     id="namedview1"
     pagecolor="#000000"
     bordercolor="#999999"
     borderopacity="1"
     inkscape:showpageshadow="2"
     inkscape:pageopacity="0"
     inkscape:pagecheckerboard="0"
     inkscape:deskcolor="#d1d1d1"
     inkscape:document-units="mm"
     inkscape:zoom="8"
     inkscape:cx="51.5625"
     inkscape:cy="63.6875"
     inkscape:window-width="2560"
     inkscape:window-height="1377"
     inkscape:window-x="-8"
     inkscape:window-y="-8"
     inkscape:window-maximized="1"
     inkscape:current-layer="layer3" /><defs
     id="defs1" /><path
     d="M 15.447119,1.118278 0.44700114,31.117997 C 0.77139147,30.816515 1.095449,30.525092 1.4190348,30.243632 c 0.3235859,-0.28146 0.6466625,-0.552866 0.9694499,-0.814421 0.3227874,-0.261554 0.6453879,-0.513228 0.9673828,-0.754992 0.3219949,-0.241764 0.6435905,-0.473475 0.964799,-0.695565 0.3212085,-0.22209 0.6423038,-0.434638 0.9627319,-0.63717 0.3204282,-0.202533 0.6404943,-0.39517 0.9601481,-0.57826 0.3196539,-0.18309 0.6386788,-0.356617 0.9575643,-0.520381 0.3188855,-0.163764 0.637374,-0.317951 0.9554973,-0.462504 0.3181232,-0.144554 0.6360632,-0.279684 0.9534301,-0.405144 0.317367,-0.12546 0.6342296,-0.2413 0.9508468,-0.347782 0.316616,-0.106482 0.632906,-0.203318 0.948779,-0.290938 0.315873,-0.08762 0.631061,-0.165737 0.946195,-0.234611 0.315135,-0.06887 0.630243,-0.128557 0.944646,-0.178801 0.314402,-0.05024 0.628385,-0.09126 0.942061,-0.12299 0.313676,-0.03173 0.627038,-0.05436 0.939994,-0.0677 0.312956,-0.01333 0.625685,-0.01735 0.937927,-0.0124 0.312243,0.005 0.62381,0.01926 0.935344,0.04237 0.311534,0.02312 0.622961,0.05495 0.933793,0.09612 0.310832,0.04116 0.621073,0.09128 0.931209,0.150378 0.310137,0.0591 0.620213,0.127204 0.929659,0.204122 0.309447,0.07692 0.618313,0.162729 0.927076,0.257349 0.308762,0.09462 0.617439,0.19837 0.925524,0.310575 0.308085,0.112205 0.615528,0.233093 0.922942,0.362768 0.307413,0.129676 0.614643,0.267933 0.92139,0.414962 0.306748,0.147029 0.613236,0.302888 0.919324,0.467155 0.306088,0.164267 0.611823,0.336926 0.917257,0.518315 0.305434,0.181388 0.610403,0.37108 0.915189,0.569474 0.304787,0.198394 0.609495,0.40535 0.91364,0.620634 0.304145,0.215284 0.607546,0.439219 0.911055,0.671277 0.303509,0.232058 0.607142,0.472171 0.910022,0.720886 0.30288,0.248716 0.605182,0.505755 0.907438,0.771012 0.302257,0.265258 0.604249,0.538939 0.905888,0.820622 z"
     style="display:inline;fill:none;stroke:#ffffff"
     id="path3" /><g
     id="layer2"
     style="display:none"
     transform="translate(-24.397918,-24.994791)"><path
       style="display:inline;fill:none;stroke:#ffffff;stroke-width:1;stroke-dasharray:none;stroke-opacity:1"
       d="m 34.333129,29.112824 v 8.000001 0"
       id="path2" /></g><g
     id="layer1"
     transform="translate(-24.174311,-24.435774)"
     style="display:none"><path
       style="fill:none;fill-opacity:1;stroke:#ffffff;stroke-width:1;stroke-dasharray:none;stroke-opacity:1"
       d="m 39.621523,25.553807 15.000003,29.999997 c -9.652452,-9.013868 -19.619501,-9.647451 -30.000002,0 z"
       id="path10" /></g><g
     inkscape:groupmode="layer"
     id="layer3"
     inkscape:label="parts"
     style="display:none"><path
       style="fill:none;stroke:#ffffff;stroke-width:1;stroke-dasharray:none;stroke-opacity:1"
       d="m 15.378906,1.3229166 -5.6223957,11.1125004 4.7294267,4.034895 2.94349,-1.951302 3.307291,4.233334 3.439584,-0.231511 z"
       id="path7"
       inkscape:export-filename="part3.svg"
       inkscape:export-xdpi="96"
       inkscape:export-ydpi="96" /><path
       style="fill:none;stroke:#ffffff;stroke-width:1;stroke-dasharray:none;stroke-opacity:1"
       d="m 5.5562499,20.505208 3.8695312,1.620573 2.8442709,-2.050521 4.266406,2.050521 4.134115,-3.373437 -3.208073,-4.167188 -3.009636,1.951302 -4.6632808,-4.001823 z"
       id="path8"
       inkscape:export-filename="part2.svg"
       inkscape:export-xdpi="96"
       inkscape:export-ydpi="96" /><path
       style="fill:none;stroke:#ffffff;stroke-width:1;stroke-dasharray:none;stroke-opacity:1"
       d="m 30.096354,30.724739 -5.886979,-12.13776 -3.505729,0.06615 -4.200261,3.373437 1.521354,2.282031 v 0 0 c 0,0 7.739063,1.918225 12.071615,6.416142 z"
       id="path9"
       inkscape:export-filename="part4.svg"
       inkscape:export-xdpi="96"
       inkscape:export-ydpi="96" /><path
       style="fill:none;stroke:#ffffff;stroke-width:1;stroke-dasharray:none;stroke-opacity:1"
       d="m 0.59531249,30.724739 5.09322911,-10.120312 3.7041666,1.554427 2.8111978,-2.050521 4.233333,1.918229 1.35599,2.248959 c 0,0 -8.268229,-1.389064 -17.19791651,6.449218 z"
       id="path11"
       inkscape:export-filename="part1.svg"
       inkscape:export-xdpi="96"
       inkscape:export-ydpi="96" /></g></svg>
